<svg width="64" height="64" viewBox="0 0 64 64" fill="none" xmlns="http://www.w3.org/2000/svg">
<path d="M17.466 8.315C16.016 10.657 19.915 12.033 20.614 9.862C23.741 9.539 22.839 5.607 20.688 6.091C21.624 4.501 18.625 2.652 18.346 5.543C16.531 4.027 14.274 8.208 17.466 8.315ZM18.078 6.929C19.099 7.681 19.27 7.273 19.206 6.306C19.109 4.651 20.044 4.716 19.861 6.392C19.764 7.273 19.592 7.316 20.796 7.66C21.914 7.972 21.517 8.949 20.366 8.294C19.217 7.628 19.335 7.488 19.249 8.906C19.163 10.314 18.54 10.067 18.561 8.949C18.593 7.585 19.044 7.886 17.852 7.477C16.682 7.068 16.8 5.983 18.078 6.929ZM29.746 9.115C27.28 10.243 30.36 14.541 32.099 11.343C33.735 13.949 37.123 10.62 35.29 8.874C36.556 5.534 32.112 4.571 31.502 6.999C30.367 5.282 26.964 7.441 29.746 9.115ZM33.142 7.628C34.027 6.645 34.825 7.52 33.568 8.375C32.305 9.233 32.218 9.037 33.611 9.807C35.002 10.576 34.427 11.088 33.313 10.529C31.936 9.838 32.478 9.519 31.453 10.542C30.443 11.548 29.401 10.899 31.009 10.05C32.294 9.375 31.968 9.006 30.958 8.604C29.229 7.916 29.781 6.986 31.382 7.981C32.226 8.504 32.182 8.695 33.142 7.628ZM46.101 11.14C45.044 7.622 40.802 9.475 41.823 11.847C39.818 11.106 38.384 14.919 41.712 14.647C40.399 17.051 45.618 18.771 45.034 15.086C48.007 16.266 48.698 11.493 46.101 11.14ZM44.004 14.81C43.807 16.245 42.546 16.33 43.333 14.669C43.96 13.343 43.46 13.232 42.383 13.501C40.535 13.962 40.405 12.865 42.34 12.733C43.36 12.663 43.444 12.847 43.563 11.392C43.672 10.05 44.87 10.298 44.376 11.755C43.882 13.219 43.688 13.11 45.312 12.916C46.932 12.723 46.784 13.489 45.52 13.689C43.959 13.939 44.204 13.352 44.004 14.81Z" fill="white"/>
<path d="M57.929 21.432C58.393 17.472 56.657 12.888 51.008 11.927C52.876 6.164 45.642 2.969 42.581 6.164C40.322 2.467 36.615 2.429 33.877 3.06C35.667 3.49 37.137 5.837 35.8 7.013C40.24 8.017 37.895 14.793 34.154 13.097C34.133 16.246 28.264 16.184 28.69 12.478C23.181 11.487 26.657 2.753 30.756 5.26C31.004 4.611 31.303 4.122 31.632 3.768C30.857 4.08 30.38 4.343 30.38 4.343C30.38 4.343 26.521 0.0870007 21.326 3.047C21.671 3.49 21.863 4.067 21.785 4.801C26.62 4.306 24.611 10.496 22.279 9.529C23.15 13.473 16.907 14.311 16.842 10.647C14.338 11.894 12.178 7.198 15.283 6.048C14.866 4.484 15.469 3.362 16.444 2.697C14.118 2.958 11.718 5.158 11.807 11.469C4.917 12.09 4.897 21.463 7.923 23.223L15.692 62H42.412L55.033 53.02L57.262 27.694C57.346 26.601 57.189 25.644 56.829 24.946C57.216 24.246 57.524 23.449 57.725 22.592C57.472 23.317 56.996 23.943 56.379 24.317C56.056 23.997 55.661 23.816 55.253 23.816C55.032 23.816 54.669 23.878 54.315 24.162C54.2506 23.9551 54.1616 23.7567 54.05 23.571C55.299 23.175 56.268 21.459 55.127 20.371C56.341 17.166 52.079 16.244 51.493 18.573C50.405 16.927 47.139 18.997 49.807 20.604C49.515 20.7297 49.2715 20.9465 49.113 21.222C49.605 21.09 50.122 21.316 50.516 21.827C50.64 21.724 50.802 21.615 51.018 21.5C52.251 20.851 51.938 20.498 50.97 20.113C49.311 19.452 49.84 18.561 51.376 19.515C52.187 20.016 52.145 20.2 53.065 19.176C53.915 18.233 54.679 19.071 53.473 19.893C52.262 20.716 52.178 20.529 53.514 21.267C54.848 22.005 54.297 22.496 53.229 21.96C51.908 21.296 52.427 20.991 51.444 21.973C51.2724 22.1498 51.067 22.2903 50.84 22.386C51.004 22.756 51.12 23.195 51.155 23.706C51.472 23.546 51.786 23.249 52.063 22.74C52.106 22.808 52.155 22.857 52.2 22.917C51.712 23.212 51.28 23.885 51.081 25.047L49.301 55.17L45.831 57.396L47.678 23.704C47.978 21.446 47.124 19.937 46.189 19.673C46.224 19.513 46.252 19.351 46.302 19.194C45.164 19.656 43.796 19.48 42.95 18.059C42.5626 18.2482 42.1479 18.3754 41.721 18.436C43.317 18.95 44.506 20.256 44.248 22.355L42.338 59.963L35.163 60L35.187 25.696L35.189 22.355C35.352 19.62 37.702 18.237 39.971 18.19C37.03 16.845 36.283 11.143 40.12 10.852C38.495 5.396 45.933 6.418 45.349 9.298C49.619 7.481 51.943 14.483 47.817 15.314C48.163 15.776 48.288 16.265 48.262 16.738C49.005 16.372 49.875 16.351 50.781 16.904C52.674 11.942 57.704 16.752 55.617 18.587C57.279 18.962 57.942 20.182 57.929 21.432ZM15.768 19.724C15.075 18.995 14.136 18.526 13.14 18.317C13.0256 18.2653 12.9099 18.2166 12.793 18.171C10.953 17.436 11.504 15.759 13.21 16.819C14.109 17.376 14.063 17.58 15.085 16.444C16.027 15.398 16.877 16.327 15.538 17.239C14.193 18.153 14.102 17.946 15.584 18.765C16.832 19.455 16.585 19.943 15.768 19.724ZM28.743 18.532C28.6144 18.3379 28.4763 18.1503 28.329 17.97C27.29 14.509 24.033 16.102 23.314 18.529C23.81 18.716 24.269 18.977 24.666 19.312C25.195 19.223 25.66 19.163 25.736 18.227C25.847 16.858 27.071 17.111 26.567 18.598C26.358 19.22 26.729 19.406 27.215 19.476C26.575 20.091 26.145 20.926 26.064 21.977L26.023 21.982C26.034 22.104 26.044 22.226 26.044 22.354L28.54 60H21.916L17.135 24.126L16.899 22.355C16.8828 22.0999 16.8895 21.8439 16.919 21.59C16.876 21.602 16.828 21.61 16.785 21.621C16.7256 21.3626 16.6426 21.1102 16.537 20.867C16.737 20.833 16.93 20.793 17.107 20.743C17.3444 20.0767 17.7781 19.4979 18.351 19.083C18.211 18.709 17.902 18.274 17.373 17.77C18.72 14.209 13.989 13.188 13.339 15.771C12.129 13.944 8.504 16.243 11.468 18.026C11.293 18.106 11.143 18.185 11.003 18.264C9.995 18.43 9.081 18.876 8.473 19.598C7.003 16.436 9.072 11.797 12.545 13.919C14.647 8.411 20.23 13.75 17.913 15.786C18.977 16.8 19.538 17.664 19.74 18.401C19.987 18.327 20.241 18.27 20.501 18.232C20.938 17.94 21.494 17.732 22.223 17.676C20.564 12.104 28.16 13.149 27.563 16.089C29.223 15.382 30.465 16.509 30.913 18.176C30.1734 18.1521 29.4362 18.273 28.743 18.532ZM54.38 26.391C54.515 25.298 54.879 24.817 55.254 24.817C55.816 24.817 56.399 25.893 56.267 27.606L54.116 52.085L52.21 53.308L54.38 26.391Z" fill="white"/>
</svg>
