<svg width="25" height="24" viewBox="0 0 25 24" fill="none" xmlns="http://www.w3.org/2000/svg">
<path d="M2.34321 10.1642C2.34321 9.06954 2.54846 8.04326 2.95898 7.0854C3.376 6.12102 3.94942 5.27393 4.67921 4.54414C5.40901 3.80782 6.25284 3.23441 7.2107 2.8239C8.17508 2.41339 9.20461 2.20813 10.2993 2.20813C11.4005 2.20813 12.4301 2.41339 13.3879 2.8239C14.3523 3.23441 15.1994 3.80782 15.9292 4.54414C16.659 5.27393 17.2291 6.12102 17.6396 7.0854C18.0567 8.04326 18.2652 9.06954 18.2652 10.1642C18.2652 11.0244 18.1316 11.8421 17.8644 12.6175C17.6038 13.3929 17.2422 14.0999 16.7795 14.7385L21.2365 19.215C21.3733 19.3454 21.4743 19.4985 21.5395 19.6744C21.6112 19.8503 21.647 20.0361 21.647 20.2315C21.647 20.5052 21.5851 20.7528 21.4613 20.9744C21.3375 21.1959 21.1681 21.3686 20.9531 21.4924C20.738 21.6227 20.4904 21.6879 20.2102 21.6879C20.0147 21.6879 19.8258 21.652 19.6433 21.5804C19.4674 21.5152 19.3078 21.4109 19.1644 21.2676L14.6781 16.7813C14.0526 17.1983 13.3684 17.5274 12.6255 17.7685C11.8892 18.003 11.1138 18.1203 10.2993 18.1203C9.20461 18.1203 8.17508 17.9151 7.2107 17.5046C6.25284 17.0941 5.40901 16.5239 4.67921 15.7941C3.94942 15.0643 3.376 14.2205 2.95898 13.2626C2.54846 12.2982 2.34321 11.2654 2.34321 10.1642ZM4.42509 10.1642C4.42509 10.9787 4.57496 11.7411 4.8747 12.4514C5.18095 13.1616 5.60449 13.7872 6.14533 14.328C6.68616 14.8623 7.3117 15.2826 8.02195 15.5888C8.7322 15.8951 9.49132 16.0482 10.2993 16.0482C11.1138 16.0482 11.8762 15.8951 12.5864 15.5888C13.2967 15.2826 13.919 14.8623 14.4533 14.328C14.9941 13.7872 15.4177 13.1616 15.7239 12.4514C16.0302 11.7411 16.1833 10.9787 16.1833 10.1642C16.1833 9.35624 16.0302 8.59712 15.7239 7.88687C15.4177 7.17662 14.9941 6.55108 14.4533 6.01025C13.919 5.46942 13.2967 5.04913 12.5864 4.74939C11.8762 4.44314 11.1138 4.29001 10.2993 4.29001C9.49132 4.29001 8.7322 4.44314 8.02195 4.74939C7.3117 5.04913 6.68616 5.46942 6.14533 6.01025C5.60449 6.55108 5.18095 7.17662 4.8747 7.88687C4.57496 8.59712 4.42509 9.35624 4.42509 10.1642Z" fill="#430E49"/>
</svg>
